<svg width="282" height="65" viewBox="0 0 282 65" fill="none" xmlns="http://www.w3.org/2000/svg">
<rect width="281.667" height="65" rx="32.5" fill="#123F3C"/>
<path d="M137.511 39.8088L135.862 40.3586C135.653 40.4344 135.464 40.3207 135.464 40.1121V23.1823H137.511V29.1732H140.26V30.9553H137.511V39.8088ZM134.137 35.8086H124.676V24.5094H132.563V26.2536H126.724V34.0644H134.137V35.8086ZM155.257 26.6896C155.257 28.2063 154.234 29.9125 151.428 29.9125H146.65C143.844 29.9125 142.821 28.2063 142.821 26.6896C142.821 25.173 143.844 23.4667 146.65 23.4667H151.428C154.234 23.4667 155.257 25.173 155.257 26.6896ZM153.172 26.6896C153.172 25.7228 152.565 25.2109 151.485 25.2109H146.593C145.513 25.2109 144.906 25.7228 144.906 26.6896C144.906 27.6565 145.513 28.1684 146.593 28.1684H151.485C152.565 28.1684 153.172 27.6565 153.172 26.6896ZM157.001 32.8511H141.076V31.1069H157.001V32.8511ZM154.916 40.0173H143.162V34.1213H154.916V40.0173ZM152.869 38.2732V35.8655H145.209V38.2732H152.869Z" fill="white"/>
</svg>
