<svg width="282" height="65" viewBox="0 0 282 65" fill="none" xmlns="http://www.w3.org/2000/svg">
<rect x="-0.677083" y="-0.677083" width="283.021" height="66.3542" rx="33.1771" fill="white" stroke="#123F3C" stroke-width="1.35417"/>
<path d="M120.203 39.3093L118.553 39.8591C118.345 39.9349 118.155 39.8212 118.155 39.6126V22.6828H120.203V28.6737H122.952V30.4557H120.203V39.3093ZM116.828 35.3091H107.368V24.0099H115.255V25.7541H109.415V33.5649H116.828V35.3091ZM138.101 39.3093L136.451 39.8591C136.243 39.9349 136.053 39.8212 136.053 39.6126V22.6828H138.101V39.3093ZM134.612 34.3232L133.058 35.3849L129.114 30.1335L125 35.6124L123.446 34.5507L128.072 28.4272V23.6307H130.157V28.4272L134.612 34.3232ZM154.861 39.3093L153.212 39.8591C153.003 39.9349 152.813 39.8212 152.813 39.6126V22.6828H154.861V29.8112H157.61V31.5932H154.861V39.3093ZM151.05 26.6072H141.363V24.863H145.23V22.7776H147.353V24.863H151.05V26.6072ZM150.595 32.8824C150.595 35.6882 148.662 36.9016 146.292 36.9016C143.922 36.9016 141.988 35.6882 141.988 32.8824V31.4416C141.988 28.6357 143.922 27.4224 146.292 27.4224C148.662 27.4224 150.595 28.6357 150.595 31.4416V32.8824ZM148.548 32.8255V31.4985C148.548 29.9628 147.581 29.2045 146.292 29.2045C145.003 29.2045 144.036 29.9628 144.036 31.4985V32.8255C144.036 34.3612 145.003 35.1195 146.292 35.1195C147.581 35.1195 148.548 34.3612 148.548 32.8255ZM172.759 39.3093L171.109 39.8591C170.901 39.9349 170.711 39.8212 170.711 39.6126V22.6828H172.759V39.3093ZM167.413 35.7641L165.763 36.3139C165.555 36.3897 165.365 36.276 165.365 36.0674V25.7541H159.279V24.0099H167.413V35.7641Z" fill="#123F3C"/>
</svg>
