<svg width="286" height="69" viewBox="0 0 286 69" fill="none" xmlns="http://www.w3.org/2000/svg">
<rect x="1.32292" y="1.32292" width="283.021" height="66.3542" rx="33.1771" fill="white" stroke="#123F3C" stroke-width="1.35417"/>
<path d="M122.203 41.3093L120.553 41.8591C120.345 41.9349 120.155 41.8212 120.155 41.6126V24.6828H122.203V30.6737H124.952V32.4557H122.203V41.3093ZM118.828 37.3091H109.368V26.0099H117.255V27.7541H111.415V35.5649H118.828V37.3091ZM140.101 41.3093L138.451 41.8591C138.243 41.9349 138.053 41.8212 138.053 41.6126V24.6828H140.101V41.3093ZM136.612 36.3232L135.058 37.3849L131.114 32.1335L127 37.6124L125.446 36.5507L130.072 30.4272V25.6307H132.157V30.4272L136.612 36.3232ZM156.861 41.3093L155.212 41.8591C155.003 41.9349 154.813 41.8212 154.813 41.6126V24.6828H156.861V31.8112H159.61V33.5932H156.861V41.3093ZM153.05 28.6072H143.363V26.863H147.23V24.7776H149.353V26.863H153.05V28.6072ZM152.595 34.8824C152.595 37.6882 150.662 38.9016 148.292 38.9016C145.922 38.9016 143.988 37.6882 143.988 34.8824V33.4416C143.988 30.6357 145.922 29.4224 148.292 29.4224C150.662 29.4224 152.595 30.6357 152.595 33.4416V34.8824ZM150.548 34.8255V33.4985C150.548 31.9628 149.581 31.2045 148.292 31.2045C147.003 31.2045 146.036 31.9628 146.036 33.4985V34.8255C146.036 36.3612 147.003 37.1195 148.292 37.1195C149.581 37.1195 150.548 36.3612 150.548 34.8255ZM174.759 41.3093L173.109 41.8591C172.901 41.9349 172.711 41.8212 172.711 41.6126V24.6828H174.759V41.3093ZM169.413 37.7641L167.763 38.3139C167.555 38.3897 167.365 38.276 167.365 38.0674V27.7541H161.279V26.0099H169.413V37.7641Z" fill="#123F3C"/>
</svg>
