<svg width="523" height="65" viewBox="0 0 523 65" fill="none" xmlns="http://www.w3.org/2000/svg">
<rect width="523" height="65" rx="32.5" fill="#123F3C"/>
<path d="M240.772 39.809L239.122 40.3588C238.914 40.4347 238.724 40.3209 238.724 40.1124V23.1826H240.772V39.809ZM237.283 34.823L235.729 35.8847L231.785 30.6332L227.671 36.1122L226.117 35.0505L230.743 28.927V24.1305H232.828V28.927L237.283 34.823ZM257.608 32.6049L255.958 33.1547C255.75 33.2305 255.56 33.1167 255.56 32.9082V23.1826H257.608V26.8036H260.243V28.5857H257.608V32.6049ZM253.778 31.0124L252.394 32.2826L248.906 28.9649L245.228 32.4722L243.844 31.202L247.863 27.4103V25.6851H244.394V23.9409H253.285V25.6851H249.949V27.4103L253.778 31.0124ZM257.608 39.809L255.958 40.3588C255.75 40.4347 255.56 40.3209 255.56 40.1124V35.4865H246.422V33.7424H257.608V39.809ZM274.861 39.809L273.212 40.3588C273.003 40.4347 272.813 40.3209 272.813 40.1124V23.1826H274.861V30.3109H277.61V32.093H274.861V39.809ZM271.05 27.107H261.363V25.3628H265.23V23.2774H267.353V25.3628H271.05V27.107ZM270.595 33.3822C270.595 36.188 268.662 37.4013 266.292 37.4013C263.922 37.4013 261.988 36.188 261.988 33.3822V31.9413C261.988 29.1355 263.922 27.9222 266.292 27.9222C268.662 27.9222 270.595 29.1355 270.595 31.9413V33.3822ZM268.548 33.3253V31.9982C268.548 30.4626 267.581 29.7042 266.292 29.7042C265.003 29.7042 264.036 30.4626 264.036 31.9982V33.3253C264.036 34.8609 265.003 35.6192 266.292 35.6192C267.581 35.6192 268.548 34.8609 268.548 33.3253ZM292.759 39.809L291.109 40.3588C290.901 40.4347 290.711 40.3209 290.711 40.1124V23.1826H292.759V39.809ZM287.413 36.2638L285.763 36.8136C285.555 36.8895 285.365 36.7757 285.365 36.5672V26.2538H279.279V24.5097H287.413V36.2638Z" fill="white"/>
</svg>
