<svg width="42" height="42" viewBox="0 0 42 42" fill="none" xmlns="http://www.w3.org/2000/svg">
<circle cx="21" cy="21" r="19.5" fill="#123F3C" stroke="#123F3C" stroke-width="3"/>
<path d="M26.076 28.14H16.116V25.42C16.116 23.36 17.116 22.18 19.276 20.84L21.896 19.22C22.556 18.82 23.236 18.02 23.236 17.14V16.74C23.236 15.54 22.416 14.78 20.896 14.78C19.656 14.78 18.756 15.62 18.756 16.94V17.56H16.016V16.98C16.016 14.06 18.036 12.38 20.956 12.38C23.896 12.38 25.976 14.04 25.976 16.62V16.96C25.976 19.3 24.576 20.42 22.956 21.42L20.336 23.04C19.296 23.68 18.856 24.3 18.856 25.28V25.76H26.076V28.14Z" fill="white"/>
</svg>
