<svg width="42" height="42" viewBox="0 0 42 42" fill="none" xmlns="http://www.w3.org/2000/svg">
<circle cx="21" cy="21" r="19.5" fill="white" stroke="#F1F1F1" stroke-width="3"/>
<path d="M26.276 24C26.276 26.98 24.116 28.54 20.996 28.54C17.456 28.54 15.716 26.52 15.716 23.66L18.496 23.48C18.436 24.94 19.276 26.14 20.916 26.14C22.616 26.14 23.536 25.32 23.536 23.94V23.58C23.536 22.24 22.816 21.32 21.056 21.32H19.776V19H20.956C22.236 19 23.136 18.02 23.136 17V16.74C23.136 15.54 22.416 14.78 20.896 14.78C19.576 14.78 18.656 15.66 18.696 17.08L15.916 16.9C15.916 14.06 17.916 12.38 20.956 12.38C23.976 12.38 25.876 14 25.876 16.54V16.9C25.876 18.1 25.396 19.24 24.176 20.02C25.536 20.78 26.276 21.98 26.276 23.46V24Z" fill="#C6C6C6"/>
</svg>
