<svg width="504" height="65" viewBox="0 0 504 65" fill="none" xmlns="http://www.w3.org/2000/svg">
<rect x="1.5" y="1.5" width="501" height="62" rx="31" fill="#F1F8F8" stroke="#759C98" stroke-width="3"/>
<path d="M245.695 25.4695H235.571V23.7822H239.61V22.3034H241.733V23.7822H245.695V25.4695ZM249.108 33.3182L247.458 33.868C247.25 33.9438 247.06 33.8301 247.06 33.6215V22.6826H249.108V27.5359H251.743V29.318H249.108V33.3182ZM245.259 28.4459C245.259 29.6024 244.539 30.8915 242.472 30.8915H241.714V31.9532H246.302V33.6974H235.079V31.9532H239.629V30.8915H238.87C236.804 30.8915 236.083 29.6024 236.083 28.4459C236.083 27.2895 236.804 26.0003 238.87 26.0003H242.472C244.539 26.0003 245.259 27.2895 245.259 28.4459ZM243.174 28.4459C243.174 27.9151 242.832 27.6876 242.283 27.6876H239.06C238.51 27.6876 238.169 27.9151 238.169 28.4459C238.169 28.9767 238.51 29.2042 239.06 29.2042H242.283C242.832 29.2042 243.174 28.9767 243.174 28.4459ZM249.108 39.309L247.458 39.8588C247.25 39.9347 247.06 39.8209 247.06 39.6124V36.1999H237.543V34.4557H249.108V39.309ZM267.006 34.5695L265.356 35.1192C265.148 35.1951 264.958 35.0813 264.958 34.8728V22.6826H267.006V34.5695ZM262.171 28.2942C262.171 31.1759 260.181 32.3513 257.792 32.3513C255.403 32.3513 253.412 31.1759 253.412 28.2942V27.1188C253.412 24.2372 255.403 23.0617 257.792 23.0617C260.181 23.0617 262.171 24.2372 262.171 27.1188V28.2942ZM260.124 28.2563V27.1567C260.124 25.5832 259.157 24.8438 257.792 24.8438C256.427 24.8438 255.46 25.5832 255.46 27.1567V28.2563C255.46 29.8299 256.427 30.5692 257.792 30.5692C259.157 30.5692 260.124 29.8299 260.124 28.2563ZM267.29 39.4038H255.915V33.7163H258V37.6597H267.29V39.4038Z" fill="#123F3C"/>
</svg>
