<svg width="106" height="106" viewBox="0 0 106 106" fill="none" xmlns="http://www.w3.org/2000/svg">
<rect x="4.5" y="4.5" width="97" height="97" rx="22.5" fill="#123F3C" stroke="#93BDBB" stroke-width="9"/>
<path d="M72.12 62.678C72.12 71.882 64.745 75.776 56.485 75.776H36.72V29.638H55.6C63.86 29.638 70.704 33.06 70.704 41.556C70.704 46.217 68.58 49.934 64.804 51.94C69.229 53.828 72.12 57.25 72.12 62.678ZM60.556 43.09C60.556 39.432 57.193 38.252 53.063 38.252H46.75V47.751H52.473C56.662 47.751 60.556 46.748 60.556 43.09ZM61.972 61.734C61.972 57.486 57.488 56.365 52.827 56.365H46.75V67.162H53.417C58.137 67.162 61.972 65.982 61.972 61.734Z" fill="white"/>
</svg>
